<?xml version="1.0" standalone="no"?>
<!DOCTYPE svg PUBLIC "-//W3C//DTD SVG 20010904//EN"
 "http://www.w3.org/TR/2001/REC-SVG-20010904/DTD/svg10.dtd">
<svg version="1.0" xmlns="http://www.w3.org/2000/svg"
 width="599.000000pt" height="599.000000pt" viewBox="0 0 599.000000 599.000000"
 preserveAspectRatio="xMidYMid meet">
<metadata>
Created by potrace 1.11, written by Peter Selinger 2001-2013
</metadata>
<g transform="translate(0.000000,599.000000) scale(0.100000,-0.100000)"
fill="#000000" stroke="none">
<path d="M2997 5414 c-3 -5 -63 -8 -134 -8 -80 1 -131 -3 -135 -9 -9 -14 -38
-18 -38 -5 0 7 -4 7 -12 1 -15 -11 -58 -11 -74 -1 -7 5 -14 0 -16 -10 -4 -14
-15 -17 -56 -16 -31 1 -50 -2 -49 -8 1 -6 -20 -12 -47 -13 -26 -1 -51 -7 -55
-12 -3 -6 -15 -9 -26 -7 -11 2 -23 -2 -27 -9 -9 -14 -68 -17 -69 -2 0 5 -4 0
-9 -12 -7 -16 -15 -21 -33 -17 -16 2 -27 -1 -31 -11 -3 -8 -12 -12 -19 -9 -8
3 -17 -1 -20 -9 -4 -10 -16 -13 -36 -11 -19 2 -30 -1 -28 -7 1 -6 -7 -13 -17
-15 -10 -1 -22 -6 -25 -11 -3 -5 -16 -8 -28 -7 -12 1 -24 -5 -27 -12 -3 -8
-12 -11 -21 -8 -8 4 -17 -1 -21 -10 -3 -9 -15 -16 -25 -16 -10 0 -19 -4 -19
-10 0 -5 -8 -10 -18 -10 -10 0 -23 -5 -30 -12 -7 -7 -12 -8 -12 -3 0 4 -8 -1
-17 -11 -20 -21 -83 -59 -83 -49 0 3 -10 -4 -22 -17 -13 -13 -30 -24 -38 -26
-8 -2 -20 -10 -27 -18 -6 -9 -20 -17 -30 -19 -10 -1 -17 -7 -16 -13 2 -9 -22
-22 -47 -26 -3 0 -18 -14 -34 -30 -16 -17 -35 -31 -42 -32 -17 -3 -144 -131
-137 -138 4 -3 1 -6 -6 -6 -15 0 -161 -146 -154 -154 4 -3 1 -6 -6 -6 -23 0
-81 -68 -74 -87 3 -10 3 -15 -1 -11 -10 9 -68 -50 -61 -62 3 -5 -1 -12 -9 -17
-8 -4 -24 -25 -36 -45 -12 -21 -26 -38 -32 -38 -5 0 -7 -4 -4 -9 3 -5 -6 -21
-19 -35 -14 -15 -25 -34 -25 -42 0 -7 -5 -14 -11 -14 -6 0 -8 -7 -5 -15 3 -9
-1 -18 -9 -21 -8 -4 -15 -13 -15 -21 0 -8 -4 -11 -10 -8 -6 4 -10 -5 -10 -20
0 -17 -4 -24 -12 -19 -8 5 -9 2 -5 -9 4 -11 -2 -22 -16 -32 -15 -10 -17 -15
-7 -15 11 -1 10 -4 -4 -15 -11 -8 -17 -15 -13 -15 4 0 2 -10 -5 -22 -7 -13
-13 -27 -13 -33 -1 -5 -6 -20 -13 -32 -7 -13 -9 -23 -5 -23 4 0 0 -7 -10 -14
-10 -8 -17 -18 -16 -22 5 -28 -2 -54 -13 -48 -8 5 -9 2 -5 -9 4 -10 0 -20 -10
-25 -9 -6 -14 -16 -10 -25 3 -8 -1 -24 -9 -36 -8 -11 -12 -21 -7 -21 4 0 1 -5
-7 -10 -8 -5 -10 -10 -3 -10 14 0 6 -35 -13 -51 -10 -8 -11 -16 -4 -29 8 -15
6 -20 -10 -25 -12 -4 -17 -11 -13 -18 12 -20 9 -77 -4 -77 -10 0 -12 -14 -9
-50 2 -27 0 -47 -4 -45 -11 7 -19 -17 -16 -53 1 -18 -3 -32 -8 -32 -7 0 -8 -3
-1 -8 13 -9 12 -36 -2 -53 -6 -8 -10 -44 -10 -82 1 -39 -2 -67 -8 -67 -5 0 -4
-4 3 -9 17 -11 17 -21 0 -32 -7 -5 -8 -9 -3 -9 6 0 10 -38 10 -95 0 -57 -4
-95 -10 -95 -5 0 -4 -4 3 -9 8 -4 14 -12 14 -16 0 -4 -6 -12 -14 -16 -8 -6 -9
-9 -1 -9 7 0 9 -11 7 -30 -4 -20 -1 -32 8 -35 15 -6 17 -62 4 -83 -4 -7 -4
-12 1 -12 4 0 8 -17 9 -37 0 -20 5 -38 10 -40 5 -2 9 -20 8 -41 -1 -20 2 -43
8 -49 6 -7 11 -29 13 -49 1 -20 6 -39 11 -43 13 -9 13 -51 0 -51 -6 0 0 -7 13
-16 18 -13 20 -18 10 -25 -10 -6 -11 -9 -2 -9 7 0 12 -3 11 -7 -1 -5 3 -17 9
-28 6 -11 9 -30 7 -42 -2 -15 1 -22 9 -20 7 1 11 -6 9 -16 -2 -9 4 -24 12 -33
8 -8 13 -21 10 -29 -4 -8 1 -17 9 -21 9 -3 14 -14 12 -25 -2 -10 3 -25 11 -34
8 -8 15 -18 16 -22 3 -25 21 -63 30 -63 6 0 7 -7 4 -15 -3 -9 1 -18 9 -21 8
-4 13 -10 10 -14 -3 -5 0 -14 7 -22 7 -7 14 -20 16 -28 2 -8 8 -18 14 -21 6
-4 8 -11 4 -17 -3 -5 1 -13 10 -16 8 -3 13 -10 9 -15 -3 -5 6 -21 19 -34 14
-14 22 -27 19 -30 -3 -3 7 -17 21 -30 15 -14 25 -29 24 -35 -2 -5 7 -19 20
-30 12 -11 21 -24 20 -29 -2 -6 11 -23 27 -39 17 -16 31 -35 33 -42 3 -16 64
-78 74 -75 3 1 5 -5 4 -14 -3 -17 227 -255 241 -251 5 2 32 -21 62 -50 31 -30
59 -51 67 -48 8 3 14 0 14 -6 0 -12 38 -48 51 -48 4 0 20 -11 34 -26 14 -14
29 -23 34 -20 5 3 17 -5 27 -19 10 -13 21 -22 25 -19 4 2 14 -3 23 -12 9 -8
20 -12 26 -9 6 3 13 -1 16 -9 3 -9 10 -14 14 -11 5 3 19 -5 32 -17 13 -13 30
-24 38 -26 8 -2 17 -8 18 -13 2 -5 7 -7 12 -4 5 3 15 -2 24 -11 9 -8 20 -13
25 -9 6 3 14 -2 19 -11 6 -10 16 -15 26 -11 11 4 16 1 16 -9 0 -11 6 -15 20
-11 11 3 27 -1 35 -10 8 -8 19 -12 24 -8 6 3 14 -2 19 -11 6 -10 16 -15 25
-11 9 3 23 0 31 -8 7 -8 23 -12 35 -10 12 2 24 -3 30 -12 5 -9 15 -14 24 -10
9 3 23 0 31 -8 8 -8 21 -12 29 -9 8 3 21 -2 30 -10 9 -10 28 -14 47 -12 20 2
33 -1 37 -10 3 -9 19 -13 50 -10 28 2 46 -1 49 -9 3 -7 26 -12 60 -12 31 0 59
-4 62 -10 4 -6 44 -10 95 -9 57 1 87 -3 87 -10 0 -14 312 -15 321 -1 4 5 42
10 85 11 44 2 90 7 103 12 12 6 39 9 58 7 19 -1 45 3 56 10 12 7 38 12 57 12
19 0 38 3 41 8 3 4 21 9 40 10 19 1 36 5 39 9 3 4 15 9 25 11 11 2 31 9 45 14
14 6 29 8 34 6 4 -3 11 -1 15 5 4 7 16 13 26 15 11 2 31 9 45 14 14 6 30 8 36
6 6 -2 14 3 17 11 4 9 13 13 20 10 8 -3 17 2 20 10 4 9 13 13 22 10 8 -4 17 0
21 9 3 10 14 14 29 11 14 -2 25 2 29 12 3 8 10 12 16 9 6 -3 17 1 26 9 9 9 19
14 24 11 5 -3 10 -1 12 4 1 5 10 11 18 13 8 2 23 11 32 21 9 10 23 19 30 21
23 3 38 17 32 29 -5 8 -3 8 6 0 11 -10 17 -9 32 4 10 9 18 13 18 10 0 -4 8 1
18 11 11 9 17 20 16 23 -2 3 8 5 21 3 14 -1 23 1 21 5 -5 8 28 35 38 32 4 -1
20 12 35 28 16 17 34 31 41 33 7 2 34 24 61 50 26 26 53 49 61 50 7 2 26 17
42 33 16 17 33 29 38 28 4 -2 7 1 5 5 -1 5 19 30 46 56 26 26 47 52 47 57 0 5
4 8 9 6 14 -4 63 54 57 69 -3 8 -2 13 2 11 10 -3 76 67 80 85 2 7 10 17 18 21
8 4 14 15 14 24 0 9 6 13 14 10 10 -4 14 0 11 13 -2 11 6 26 20 36 13 10 22
25 20 35 -2 11 2 18 8 16 7 -1 11 4 10 10 -2 7 2 12 8 10 6 -1 13 7 15 18 1
11 9 24 16 30 19 14 53 69 37 59 -7 -4 -3 7 10 24 12 18 19 32 16 32 -4 0 1 7
10 16 9 9 14 23 11 31 -3 8 -2 12 3 9 10 -7 24 22 16 34 -3 4 2 11 11 14 8 3
12 10 9 16 -3 5 -2 10 4 10 6 0 13 11 17 25 3 14 10 25 16 25 5 0 7 14 4 30
-2 17 -1 28 4 25 10 -6 22 24 14 36 -3 5 2 9 10 9 11 0 15 8 12 30 -2 21 1 30
11 30 10 0 14 7 10 19 -3 11 2 29 10 41 8 12 13 30 10 41 -3 12 0 19 9 19 9 0
13 9 10 30 -2 19 4 40 16 55 11 14 15 25 9 25 -12 0 -7 29 12 67 9 18 12 36 6
50 -5 15 -3 25 7 34 8 7 14 24 12 38 -1 14 1 32 5 39 5 6 4 12 -1 12 -12 0 -8
55 5 72 6 7 10 39 9 71 -1 31 2 57 7 57 5 0 4 7 -3 15 -10 12 -10 15 1 15 9 0
10 3 4 8 -13 9 -14 72 -2 72 5 0 5 6 -2 13 -8 10 -7 17 1 25 7 7 8 12 2 12
-12 0 -10 72 1 91 6 8 4 10 -6 4 -12 -8 -12 -6 0 8 7 9 9 17 4 17 -11 0 -10
61 1 78 3 6 -2 13 -12 16 -18 6 -28 46 -12 46 5 0 6 10 2 23 -4 12 -7 31 -7
42 1 11 -3 26 -9 33 -13 17 -15 71 -4 78 5 3 2 12 -8 18 -11 8 -18 29 -19 57
-3 59 -4 61 -14 54 -6 -3 -8 5 -5 19 2 13 -2 29 -10 35 -7 6 -11 22 -8 36 2
14 -1 31 -7 39 -6 7 -12 25 -13 40 -1 14 -8 26 -14 26 -7 0 -10 8 -7 20 4 13
0 20 -9 20 -10 0 -13 10 -12 30 1 17 -2 30 -6 30 -4 0 -11 11 -14 25 -4 14
-10 25 -15 25 -4 0 -7 11 -6 25 2 15 -2 25 -10 25 -8 0 -11 7 -8 19 3 11 -2
21 -11 24 -9 4 -13 13 -10 20 3 8 -2 17 -10 20 -9 4 -13 13 -10 20 3 8 -2 17
-11 21 -9 3 -14 10 -10 15 8 13 -26 52 -38 44 -6 -4 -8 0 -4 10 3 8 -1 21 -8
27 -8 7 -12 17 -9 22 3 5 -3 16 -15 24 -12 8 -21 21 -21 29 0 8 -10 23 -22 35
-12 11 -18 20 -14 20 4 0 1 6 -6 14 -20 21 -41 53 -39 60 3 10 -26 36 -39 36
-6 0 -9 4 -6 9 3 5 -1 12 -10 15 -8 3 -13 10 -9 16 6 10 -105 126 -117 122 -5
-1 -8 3 -8 10 0 14 -122 134 -132 130 -5 -1 -8 2 -8 8 0 13 -97 110 -110 110
-6 0 -26 15 -44 33 -18 18 -37 32 -43 30 -6 -2 -18 8 -27 22 -9 14 -21 23 -25
21 -5 -3 -21 5 -37 19 -15 13 -31 22 -36 19 -4 -3 -8 0 -8 5 0 6 -7 11 -15 11
-8 0 -14 6 -12 13 1 6 -7 12 -17 12 -11 0 -21 6 -24 13 -2 6 -7 10 -12 7 -4
-2 -19 5 -32 18 -14 12 -32 23 -39 25 -8 2 -18 10 -22 18 -5 8 -12 12 -17 9
-5 -3 -25 4 -44 15 -20 11 -36 16 -36 12 0 -4 -4 -1 -9 7 -5 7 -21 15 -35 16
-15 2 -33 9 -41 15 -8 7 -15 9 -15 4 0 -5 -4 -3 -8 4 -5 7 -22 15 -37 18 -16
3 -35 10 -42 16 -7 6 -13 7 -13 2 0 -5 -5 -2 -10 6 -5 8 -21 16 -36 17 -15 1
-30 6 -33 11 -3 4 -21 8 -40 7 -19 0 -35 5 -38 12 -4 9 -16 12 -34 9 -16 -2
-27 -1 -24 4 7 11 -14 17 -55 16 -37 -1 -62 12 -52 29 3 6 -1 5 -9 -1 -17 -14
-49 -14 -49 -1 0 5 -7 4 -15 -3 -12 -10 -16 -9 -20 2 -4 9 -18 14 -38 13 -18
-1 -39 2 -48 6 -9 5 -21 3 -26 -2 -7 -7 -15 -6 -24 3 -10 10 -45 14 -129 14
-63 -1 -118 3 -121 8 -4 4 -9 4 -12 0z"/>
</g>
</svg>
